<svg stroke-miterlimit="10" style="fill-rule:nonzero;clip-rule:evenodd;stroke-linecap:round;stroke-linejoin:round" viewBox="0 0 311.85 311.85" xml:space="preserve" xmlns="http://www.w3.org/2000/svg" >
  <g>
    <path d="M156.866 193.365s-41.495-35.125-65.4954-67.269c-14.0239-18.783-4.033-54.6767 29.7114-69.2194 20.691-8.917 25.398-61.53304 37.107-48.32605 28.169 31.77275 84.129 52.78155 83.038 95.19045-1.091 42.409-84.361 89.624-84.361 89.624Z" fill="#12b73e" />
    <path d="M159.552 225.232s-18.256 14.71-17.779 34.756c.477 20.045 19.688 45.426 19.688 45.426s13.101-25.381 12.624-45.426c-.477-20.046-14.533-34.756-14.533-34.756Z" fill="#12b73e" />
    <path d="M67.9338 160.016s45.3692-2.558 66.5102 14.955c21.141 17.514 18.053 55.097 18.053 55.097s-46.717 6.274-86.1279 13.627c-13.6907 2.554-29.3598 18.659-37.965 16.293-33.37692-9.176-9.4142-66.623-9.4142-66.623l47.693-31.348" fill="#fff" />
    <path d="M243.916 160.016s-45.369-2.558-66.51 14.955c-21.141 17.514-18.053 55.097-18.053 55.097s46.717 6.274 86.128 13.627c13.691 2.554 29.36 18.659 37.965 16.293 33.377-9.176 9.414-66.623 9.414-66.623l-47.693-31.348" fill="#fff" />
    <path d="M14.8365 242.919c-8.12554-37.769 15.9052-74.974 53.6741-83.099 37.7694-8.126 74.9734 15.905 83.0994 53.674 8.126 37.769-24.029 15.424-61.7983 23.55-37.7689 8.125-66.8496 43.644-74.9752 5.875Z" fill="none" stroke="#000" stroke-linecap="butt" stroke-width="14" />
    <path d="M83.0663 181.5c-24.7933 0-44.9062 20.081-44.9062 44.875 0 10.514 3.7893 20.067 9.8437 27.718 11.8647-5.616 26.0043-13.661 41.8125-17.062 13.6787-2.943 26.5347-1.872 37.0937-1.125.664-3.071 1.063-6.262 1.063-9.531 0-24.794-20.113-44.875-44.9067-44.875Z" stroke="#000" stroke-linecap="butt" stroke-width="10"/>
    <path d="M299.494 242.919c8.125-37.769-15.905-74.974-53.674-83.099-37.769-8.126-74.974 15.905-83.1 53.674-8.125 37.769 24.03 15.424 61.799 23.55 37.769 8.125 66.849 43.644 74.975 5.875Z" fill="none" stroke="#000" stroke-linecap="butt" stroke-width="14"/>
    <path d="M231.264 181.5c24.793 0 44.906 20.081 44.906 44.875 0 10.514-3.789 20.067-9.843 27.718-11.865-5.616-26.005-13.661-41.813-17.062-13.679-2.943-26.535-1.872-37.094-1.125-.663-3.071-1.062-6.262-1.062-9.531 0-24.794 20.113-44.875 44.906-44.875Z" stroke="#000" stroke-linecap="butt" stroke-width="10" />
    <path d="M141.859 233.843s-2.148 67.265 15.007 69.275c17.155 2.011 18.442-3.795 16.581-68.632" fill="none" stroke="#000" stroke-linecap="butt" stroke-width="14" />
    <path d="M159.219 198.781c-2.46.193-4.702 1.825-5.531 4.313.43.703.699 1.541 1.281 2.125 1.109 1.114 2.482 1.934 3.719 2.906 1.572-.036 3.162.132 4.718-.094.816-.118 1.547-.633 2.313-.937 1.106-3.318-.714-6.894-4.031-8-.83-.277-1.649-.377-2.469-.313Z" />
    <path d="M156.866 7.78636c0-1.46327-5.541 25.23684-39.352 52.77414-68.2392 55.5785-10.694 88.5315 14.293 109.1665 32.045 26.464 23.544 28.567 23.544 28.567l1.515 1.459 1.516-1.459s12.269-16.673 43.449-44.15c13.071-11.519 33.558-24.546 38.363-43.762 2.077-8.307 1.224-17.7695-4.425-28.7668-4.999-9.7299-13.752-20.6609-27.551-33.0547-12.114-10.8804-51.352-42.23741-51.352-40.77414" fill="none" stroke="#000" stroke-linecap="butt" stroke-width="14" vectornator:layerName="Кривая 1"/>
    <path d="M160.75 72.9375c.373 4.7228.079 9.5457-.344 14.25-.497 5.5287-1.291 11.0422-2.468 16.4685-.482 2.221-1.109 4.414-1.626 6.625-.705 3.018-1.296 6.05-2.031 9.063-.987 4.048-2.091 8.068-2.906 12.156-2.785 13.976-3.3 28.365-2.437 42.562.271 4.466.683 8.938 1.25 13.376.311 2.435.604 4.873 1.093 7.281.751 3.415 4.147 5.595 7.563 4.843 3.415-.751 5.563-4.147 4.812-7.562-.312-.753-.393-1.678-.562-2.469-.355-1.656-.669-3.333-.969-5-.966-5.359-1.709-10.765-2.219-16.187-.984-10.461-1.185-20.997-.25-31.469.424-4.741 1.236-9.387 1.906-14.094.461-3.231.865-6.502 1.188-9.75.237-2.382.184-4.766.188-7.156.003-3.168.008-6.3321-.063-9.5-.114-5.1106-.369-10.1967-.906-15.2812-.288-2.7209-.618-5.4827-1.219-8.1563Z" vectornator:layerName="Кривая 3"/>
    <path d="M150.38 5.50982c-2.498 7.46588-9.918 21.56238-9.918 21.56238l2.977 9.2823 16.638-19.1776 27.059 17.5138 3.853-6.918-29.536-24.65769s-8.576-5.0711-11.073 2.39481Z"/>
  </g>
</svg>
